<svg width="101" height="110" viewBox="0 0 101 110" fill="none" xmlns="http://www.w3.org/2000/svg">
<path fill-rule="evenodd" clip-rule="evenodd" d="M8.13442 35.8646C7.079 35.3346 5.85625 35.2455 4.73515 35.617L1 24.3447L71.4517 1L99.4654 85.5421L29.0136 108.887L7.53652 44.0712C8.65761 43.6997 9.58522 42.8981 10.1153 41.8427C10.6453 40.7872 10.7344 39.5645 10.3629 38.4434C9.99145 37.3223 9.18983 36.3947 8.13442 35.8646ZM20.7197 29.3796L60.3959 16.2325C62.4502 15.5518 64.6809 16.7062 65.3783 18.8109L83.8988 74.7036C84.5962 76.8083 83.4962 79.0663 81.4419 79.747L41.7656 92.894C39.7113 93.5747 37.4806 92.4204 36.7832 90.3157L18.2628 34.423C17.5654 32.3183 18.6653 30.0603 20.7197 29.3796Z" fill="white"/>
<path d="M4.73515 35.617L3.78591 35.9315C3.95962 36.4558 4.52544 36.7399 5.04969 36.5662L4.73515 35.617ZM8.13442 35.8646L8.58322 34.971L8.58322 34.971L8.13442 35.8646ZM1 24.3447L0.685461 23.3955C0.433706 23.4789 0.2254 23.6589 0.10637 23.8959C-0.0126603 24.1329 -0.0326655 24.4075 0.0507555 24.6592L1 24.3447ZM71.4517 1L72.401 0.685461C72.2273 0.161208 71.6615 -0.12296 71.1372 0.0507555L71.4517 1ZM99.4654 85.5421L99.7799 86.4913C100.304 86.3176 100.588 85.7518 100.415 85.2275L99.4654 85.5421ZM29.0136 108.887L28.0644 109.201C28.1478 109.453 28.3278 109.661 28.5648 109.78C28.8018 109.899 29.0764 109.919 29.3282 109.836L29.0136 108.887ZM7.53652 44.0712L7.22198 43.1219C6.97022 43.2054 6.76192 43.3854 6.64289 43.6224C6.52385 43.8594 6.50385 44.134 6.58727 44.3857L7.53652 44.0712ZM60.3959 16.2325L60.7105 17.1818L60.7105 17.1818L60.3959 16.2325ZM20.7197 29.3796L21.0342 30.3288L21.0342 30.3288L20.7197 29.3796ZM65.3783 18.8109L66.3276 18.4963L66.3276 18.4963L65.3783 18.8109ZM83.8988 74.7036L82.9495 75.0181L82.9495 75.0181L83.8988 74.7036ZM81.4419 79.747L81.7564 80.6963L81.7564 80.6963L81.4419 79.747ZM41.7656 92.894L41.4511 91.9448L41.4511 91.9448L41.7656 92.894ZM36.7832 90.3157L37.7325 90.0012L37.7325 90.0011L36.7832 90.3157ZM18.2628 34.423L17.3135 34.7375L17.3135 34.7375L18.2628 34.423ZM5.04969 36.5662C5.91903 36.2782 6.8672 36.3472 7.68561 36.7583L8.58322 34.971C7.2908 34.3219 5.79347 34.2128 4.42061 34.6677L5.04969 36.5662ZM0.0507555 24.6592L3.78591 35.9315L5.6844 35.3024L1.94924 24.0302L0.0507555 24.6592ZM71.1372 0.0507555L0.685461 23.3955L1.31454 25.2939L71.7663 1.94924L71.1372 0.0507555ZM100.415 85.2275L72.401 0.685461L70.5025 1.31454L98.5161 85.8566L100.415 85.2275ZM29.3282 109.836L99.7799 86.4913L99.1508 84.5928L28.6991 107.938L29.3282 109.836ZM6.58727 44.3857L28.0644 109.201L29.9629 108.572L8.48576 43.7566L6.58727 44.3857ZM9.22165 41.3939C8.81062 42.2123 8.09132 42.8339 7.22198 43.1219L7.85105 45.0204C9.22391 44.5655 10.3598 43.5839 11.0089 42.2915L9.22165 41.3939ZM9.41369 38.7579C9.70176 39.6273 9.63268 40.5754 9.22165 41.3939L11.0089 42.2915C11.658 40.999 11.7671 39.5017 11.3122 38.1289L9.41369 38.7579ZM7.68561 36.7583C8.50402 37.1693 9.12563 37.8886 9.41369 38.7579L11.3122 38.1289C10.8573 36.756 9.87564 35.6201 8.58322 34.971L7.68561 36.7583ZM60.0814 15.2833L20.4051 28.4303L21.0342 30.3288L60.7105 17.1818L60.0814 15.2833ZM66.3276 18.4963C65.4637 15.8892 62.6815 14.4217 60.0814 15.2833L60.7105 17.1818C62.219 16.6819 63.8982 17.5232 64.4291 19.1254L66.3276 18.4963ZM84.848 74.3891L66.3276 18.4963L64.4291 19.1254L82.9495 75.0181L84.848 74.3891ZM81.7564 80.6963C84.3565 79.8347 85.7119 76.9962 84.848 74.3891L82.9495 75.0181C83.4805 76.6204 82.6359 78.2979 81.1274 78.7978L81.7564 80.6963ZM42.0802 93.8433L81.7564 80.6963L81.1274 78.7978L41.4511 91.9448L42.0802 93.8433ZM35.834 90.6302C36.6979 93.2374 39.4801 94.7048 42.0802 93.8433L41.4511 91.9448C39.9426 92.4446 38.2634 91.6034 37.7325 90.0012L35.834 90.6302ZM17.3135 34.7375L35.834 90.6302L37.7325 90.0011L19.212 34.1084L17.3135 34.7375ZM20.4051 28.4303C17.805 29.2919 16.4496 32.1304 17.3135 34.7375L19.212 34.1084C18.6811 32.5062 19.5257 30.8286 21.0342 30.3288L20.4051 28.4303Z" fill="black"/>
<path d="M4.73515 35.617L3.78591 35.9315C3.95962 36.4558 4.52544 36.7399 5.04969 36.5662L4.73515 35.617ZM8.13442 35.8646L8.58322 34.971L8.58322 34.971L8.13442 35.8646ZM1 24.3447L0.685461 23.3955C0.433706 23.4789 0.2254 23.6589 0.10637 23.8959C-0.0126603 24.1329 -0.0326655 24.4075 0.0507555 24.6592L1 24.3447ZM71.4517 1L72.401 0.685461C72.2273 0.161208 71.6615 -0.12296 71.1372 0.0507555L71.4517 1ZM99.4654 85.5421L99.7799 86.4913C100.304 86.3176 100.588 85.7518 100.415 85.2275L99.4654 85.5421ZM29.0136 108.887L28.0644 109.201C28.1478 109.453 28.3278 109.661 28.5648 109.78C28.8018 109.899 29.0764 109.919 29.3282 109.836L29.0136 108.887ZM7.53652 44.0712L7.22198 43.1219C6.97022 43.2054 6.76192 43.3854 6.64289 43.6224C6.52385 43.8594 6.50385 44.134 6.58727 44.3857L7.53652 44.0712ZM60.3959 16.2325L60.7105 17.1818L60.7105 17.1818L60.3959 16.2325ZM20.7197 29.3796L21.0342 30.3288L21.0342 30.3288L20.7197 29.3796ZM65.3783 18.8109L66.3276 18.4963L66.3276 18.4963L65.3783 18.8109ZM83.8988 74.7036L82.9495 75.0181L82.9495 75.0181L83.8988 74.7036ZM81.4419 79.747L81.7564 80.6963L81.7564 80.6963L81.4419 79.747ZM41.7656 92.894L41.4511 91.9448L41.4511 91.9448L41.7656 92.894ZM36.7832 90.3157L37.7325 90.0012L37.7325 90.0011L36.7832 90.3157ZM18.2628 34.423L17.3135 34.7375L17.3135 34.7375L18.2628 34.423ZM5.04969 36.5662C5.91903 36.2782 6.8672 36.3472 7.68561 36.7583L8.58322 34.971C7.2908 34.3219 5.79347 34.2128 4.42061 34.6677L5.04969 36.5662ZM0.0507555 24.6592L3.78591 35.9315L5.6844 35.3024L1.94924 24.0302L0.0507555 24.6592ZM71.1372 0.0507555L0.685461 23.3955L1.31454 25.2939L71.7663 1.94924L71.1372 0.0507555ZM100.415 85.2275L72.401 0.685461L70.5025 1.31454L98.5161 85.8566L100.415 85.2275ZM29.3282 109.836L99.7799 86.4913L99.1508 84.5928L28.6991 107.938L29.3282 109.836ZM6.58727 44.3857L28.0644 109.201L29.9629 108.572L8.48576 43.7566L6.58727 44.3857ZM9.22165 41.3939C8.81062 42.2123 8.09132 42.8339 7.22198 43.1219L7.85105 45.0204C9.22391 44.5655 10.3598 43.5839 11.0089 42.2915L9.22165 41.3939ZM9.41369 38.7579C9.70176 39.6273 9.63268 40.5754 9.22165 41.3939L11.0089 42.2915C11.658 40.999 11.7671 39.5017 11.3122 38.1289L9.41369 38.7579ZM7.68561 36.7583C8.50402 37.1693 9.12563 37.8886 9.41369 38.7579L11.3122 38.1289C10.8573 36.756 9.87564 35.6201 8.58322 34.971L7.68561 36.7583ZM60.0814 15.2833L20.4051 28.4303L21.0342 30.3288L60.7105 17.1818L60.0814 15.2833ZM66.3276 18.4963C65.4637 15.8892 62.6815 14.4217 60.0814 15.2833L60.7105 17.1818C62.219 16.6819 63.8982 17.5232 64.4291 19.1254L66.3276 18.4963ZM84.848 74.3891L66.3276 18.4963L64.4291 19.1254L82.9495 75.0181L84.848 74.3891ZM81.7564 80.6963C84.3565 79.8347 85.7119 76.9962 84.848 74.3891L82.9495 75.0181C83.4805 76.6204 82.6359 78.2979 81.1274 78.7978L81.7564 80.6963ZM42.0802 93.8433L81.7564 80.6963L81.1274 78.7978L41.4511 91.9448L42.0802 93.8433ZM35.834 90.6302C36.6979 93.2374 39.4801 94.7048 42.0802 93.8433L41.4511 91.9448C39.9426 92.4446 38.2634 91.6034 37.7325 90.0012L35.834 90.6302ZM17.3135 34.7375L35.834 90.6302L37.7325 90.0011L19.212 34.1084L17.3135 34.7375ZM20.4051 28.4303C17.805 29.2919 16.4496 32.1304 17.3135 34.7375L19.212 34.1084C18.6811 32.5062 19.5257 30.8286 21.0342 30.3288L20.4051 28.4303Z" fill="black" fill-opacity="0.2"/>
</svg>
