<svg width="102" height="110" viewBox="0 0 102 110" fill="none" xmlns="http://www.w3.org/2000/svg">
<path d="M23.8329 39.0217L25.7005 44.6578L23.8329 39.0217ZM28.035 51.703L35.0384 72.8385L28.035 51.703ZM5.53218 35.7033C6.65328 35.3318 7.87603 35.4209 8.93144 35.951C9.98686 36.481 10.7885 37.4086 11.16 38.5297C11.5314 39.6508 11.4424 40.8736 10.9123 41.929C10.3823 42.9844 9.45464 43.786 8.33354 44.1575L29.8107 108.973L100.262 85.6284L72.2488 1.08633L1.79703 24.431L5.53218 35.7033Z" fill="white"/>
<path d="M23.8329 39.0217L25.7005 44.6578M28.035 51.703L35.0384 72.8385M5.53218 35.7033C6.65328 35.3318 7.87603 35.4209 8.93144 35.951C9.98686 36.481 10.7885 37.4086 11.16 38.5297C11.5314 39.6508 11.4424 40.8736 10.9123 41.929C10.3823 42.9844 9.45464 43.786 8.33354 44.1575L29.8107 108.973L100.262 85.6284L72.2488 1.08633L1.79703 24.431L5.53218 35.7033Z" stroke="black" stroke-width="2" stroke-linecap="round" stroke-linejoin="round"/>
<path d="M23.8329 39.0217L25.7005 44.6578M28.035 51.703L35.0384 72.8385M5.53218 35.7033C6.65328 35.3318 7.87603 35.4209 8.93144 35.951C9.98686 36.481 10.7885 37.4086 11.16 38.5297C11.5314 39.6508 11.4424 40.8736 10.9123 41.929C10.3823 42.9844 9.45464 43.786 8.33354 44.1575L29.8107 108.973L100.262 85.6284L72.2488 1.08633L1.79703 24.431L5.53218 35.7033Z" stroke="black" stroke-opacity="0.2" stroke-width="2" stroke-linecap="round" stroke-linejoin="round"/>
<path d="M60.3959 16.2325L20.7196 29.3796C18.6653 30.0603 17.5654 32.3183 18.2628 34.423L36.7832 90.3157C37.4806 92.4204 39.7113 93.5747 41.7656 92.894L81.4419 79.747C83.4962 79.0663 84.5962 76.8083 83.8988 74.7036L65.3783 18.8109C64.6809 16.7062 62.4502 15.5518 60.3959 16.2325Z" fill="#EF539D"/>
<path d="M60.3959 16.2325L20.7196 29.3796C18.6653 30.0603 17.5654 32.3183 18.2628 34.423L36.7832 90.3157C37.4806 92.4204 39.7113 93.5747 41.7656 92.894L81.4419 79.747C83.4962 79.0663 84.5962 76.8083 83.8988 74.7036L65.3783 18.8109C64.6809 16.7062 62.4502 15.5518 60.3959 16.2325Z" stroke="black" stroke-width="2" stroke-linecap="round" stroke-linejoin="round"/>
<path d="M60.3959 16.2325L20.7196 29.3796C18.6653 30.0603 17.5654 32.3183 18.2628 34.423L36.7832 90.3157C37.4806 92.4204 39.7113 93.5747 41.7656 92.894L81.4419 79.747C83.4962 79.0663 84.5962 76.8083 83.8988 74.7036L65.3783 18.8109C64.6809 16.7062 62.4502 15.5518 60.3959 16.2325Z" stroke="black" stroke-opacity="0.2" stroke-width="2" stroke-linecap="round" stroke-linejoin="round"/>
</svg>
