<svg width="106" height="101" viewBox="0 0 106 101" fill="none" xmlns="http://www.w3.org/2000/svg">
<path d="M94.7785 15.7161L91.9958 10.5935L86.7036 8.07916L75.1855 18.9726L77.6556 23.7995L83.2604 26.6075L90.3373 22.4092L94.7785 15.7161Z" fill="#EAEAEA"/>
<path d="M94.7785 15.7161L83.2604 26.6075L83.2832 29.1218L85.9417 29.1433L97.4577 18.25L97.4349 15.7376L94.7785 15.7161Z" fill="#D6D6D6"/>
<path d="M39.118 63.5391L39.118 63.539C39.2062 63.4555 39.3112 63.389 39.4272 63.3435C39.5432 63.298 39.6677 63.2745 39.7936 63.2745C39.9195 63.2745 40.044 63.298 40.16 63.3435C40.276 63.389 40.381 63.4555 40.4692 63.539L40.4692 63.5391L42.3283 65.2973L35.9083 71.3672L33.3747 68.9709L39.118 63.5391Z" stroke="black" stroke-width="0.2"/>
<path d="M43.876 66.4897L42.3442 65.041C43.3215 65.5843 44.4421 65.8775 45.5941 65.8775C47.2939 65.8775 48.9251 65.2391 50.1288 64.1011L50.1288 64.1011L70.3718 44.9522L72.8896 44.9689L72.9111 47.3412L52.6706 66.4897L52.6706 66.4897C52.0938 67.0357 51.4086 67.4691 50.654 67.7649C49.8995 68.0607 49.0904 68.2131 48.2733 68.2131C47.4562 68.2131 46.6471 68.0607 45.8926 67.7649C45.138 67.4691 44.4528 67.0357 43.876 66.4897L43.876 66.4897Z" stroke="black" stroke-width="0.2"/>
<path d="M1.57558 100.255C1.26411 100.254 0.959842 100.166 0.701011 100.002C0.44218 99.8385 0.24034 99.606 0.120859 99.3339C0.00137873 99.0619 -0.0304095 98.7625 0.02949 98.4735C0.0893895 98.1844 0.238304 97.9185 0.457515 97.7092L24.4151 75.0471C24.5613 74.9063 24.7356 74.7943 24.9278 74.7175C25.12 74.6408 25.3264 74.6008 25.5351 74.5999C25.7438 74.599 25.9506 74.6372 26.1436 74.7123C26.3365 74.7874 26.5118 74.8979 26.6594 75.0375C26.807 75.177 26.9238 75.3428 27.0032 75.5253C27.0826 75.7078 27.123 75.9034 27.1221 76.1008C27.1211 76.2981 27.0789 76.4933 26.9977 76.6752C26.9165 76.857 26.7981 77.0218 26.6492 77.16L2.68743 99.8182C2.39215 100.097 1.99256 100.254 1.57558 100.255ZM55.2467 42.2358C55.1002 42.3747 54.9261 42.485 54.7344 42.5602C54.5427 42.6354 54.3372 42.6742 54.1297 42.6742C53.9222 42.6742 53.7167 42.6354 53.525 42.5602C53.3333 42.485 53.1592 42.3747 53.0127 42.2358L48.6212 38.0825L50.8531 35.9696L55.2467 40.1249C55.3933 40.2634 55.5096 40.428 55.589 40.6091C55.6683 40.7902 55.7092 40.9843 55.7092 41.1803C55.7092 41.3764 55.6683 41.5705 55.589 41.7516C55.5096 41.9327 55.3933 42.0972 55.2467 42.2358ZM50.0664 47.1371C49.7698 47.4168 49.3681 47.5739 48.9493 47.5739C48.5305 47.5739 48.1288 47.4168 47.8323 47.1371L43.4387 42.9819L45.6707 40.8709L50.0664 45.034C50.3584 45.3143 50.5222 45.692 50.5222 46.0856C50.5222 46.4791 50.3584 46.8568 50.0664 47.1371ZM44.8839 52.0365C44.7374 52.1755 44.5633 52.2857 44.3716 52.3609C44.1799 52.4362 43.9744 52.4749 43.7669 52.4749C43.5594 52.4749 43.3539 52.4362 43.1622 52.3609C42.9705 52.2857 42.7964 52.1755 42.6499 52.0365L38.2584 47.8832L40.4924 45.7703L44.8839 49.9295C45.1783 50.2094 45.3435 50.5882 45.3435 50.983C45.3435 51.3778 45.1783 51.7566 44.8839 52.0365Z" fill="#EAEAEA"/>
<path d="M75.1068 40.3364L70.1149 33.1204L60.6714 26.6819L55.8948 31.1995L70.3302 44.8519L74.0364 43.8415L75.1068 40.3364Z" fill="#827981"/>
<path d="M28.2041 77.1346L36.0222 68.8534L31.3284 64.4201C31.2261 64.3232 31.1035 64.2477 30.9684 64.1984C30.8334 64.1492 30.6889 64.1273 30.5443 64.1341C30.3997 64.1409 30.2583 64.1763 30.1291 64.2381C29.9999 64.2998 29.8858 64.3865 29.7942 64.4925L23.0796 72.292C22.5734 72.8847 22.2403 73.5926 22.1135 74.345C21.9867 75.0975 22.0707 75.8682 22.357 76.5804C24.4109 78.5327 26.8935 78.1431 28.2041 77.1346Z" fill="#F9ED80"/>
<path d="M36.0223 68.8534L26.8873 75.8872C26.2621 76.3671 25.5148 76.6836 24.7199 76.8053C23.9251 76.9269 23.1104 76.8494 22.3571 76.5804C22.6641 77.3611 23.2034 78.0412 23.9099 78.5386C24.7532 79.1167 25.7758 79.4131 26.8167 79.3812C27.8576 79.3493 28.8578 78.9909 29.6597 78.3624L37.8215 72.0766C37.9338 71.9901 38.0256 71.8823 38.0911 71.7602C38.1565 71.6381 38.1942 71.5043 38.2016 71.3676C38.209 71.2309 38.186 71.0942 38.1341 70.9663C38.0822 70.8385 38.0025 70.7224 37.9002 70.6256L36.0223 68.8534Z" fill="#FCCB88"/>
<path d="M75.1068 40.3363L70.3302 44.8519L73.0115 47.3877L77.7881 42.8702L77.8295 40.4186L75.1068 40.3363Z" fill="#706B70"/>
<path d="M81.4197 34.3658L76.1793 26.9149L66.9843 20.7134L60.6714 26.6819L75.1068 40.3363L79.5811 38.5975L81.4197 34.3658Z" fill="#EAEAEA"/>
<path d="M81.4197 34.3658L75.1068 40.3363L77.7881 42.8702L84.0989 36.8997L84.0782 34.3874L81.4197 34.3658Z" fill="#D6D6D6"/>
<path d="M84.0575 36.8684C86.1425 38.8403 87.5318 38.8912 88.3538 38.1138L90.3973 36.1811C91.2255 35.3978 90.9481 33.8861 89.0805 32.1198L69.3571 13.4603C68.9622 13.0869 68.4267 12.8772 67.8684 12.8772C67.3101 12.8772 66.7746 13.0869 66.3797 13.4603L64.3361 15.393C63.9414 15.7664 63.7197 16.2729 63.7197 16.8009C63.7197 17.329 63.9414 17.8354 64.3361 18.2089L84.0575 36.8684Z" fill="#D8D8D8"/>
<path d="M89.0888 32.1198C89.4835 32.4932 89.7053 32.9997 89.7053 33.5277C89.7053 34.0558 89.4835 34.5622 89.0888 34.9357L87.0432 36.8684C86.6483 37.2417 86.1128 37.4514 85.5545 37.4514C84.9961 37.4514 84.4607 37.2417 84.0658 36.8684L86.7491 39.4023C87.144 39.7756 87.6795 39.9853 88.2378 39.9853C88.7962 39.9853 89.3316 39.7756 89.7265 39.4023L91.7701 37.4696C92.1648 37.0961 92.3865 36.5897 92.3865 36.0616C92.3865 35.5336 92.1648 35.0271 91.7701 34.6537L89.0888 32.1198Z" fill="#C9C9C9"/>
<path d="M97.8097 18.5829C99.6731 20.3452 101.282 20.6076 102.104 19.8302L104.025 18.0111C104.853 17.2278 104.793 15.9197 102.708 13.9478L88.5712 0.583208C88.1759 0.209768 87.6401 0 87.0815 0C86.5228 0 85.987 0.209768 85.5917 0.583208L83.6724 2.4004C83.4765 2.58506 83.321 2.80448 83.2149 3.04609C83.1088 3.28769 83.0542 3.54673 83.0542 3.80834C83.0542 4.06995 83.1088 4.32899 83.2149 4.57059C83.321 4.8122 83.4765 5.03162 83.6724 5.21628L97.8097 18.5868V18.5829Z" fill="#D8D8D8"/>
<path d="M102.708 13.9498C103.103 14.3232 103.325 14.8297 103.325 15.3577C103.325 15.8858 103.103 16.3922 102.708 16.7656L100.787 18.5828C100.592 18.7679 100.36 18.9148 100.104 19.0149C99.8487 19.1151 99.5749 19.1667 99.2984 19.1667C99.0218 19.1667 98.748 19.1151 98.4926 19.0149C98.2371 18.9148 98.0051 18.7679 97.8097 18.5828L100.489 21.1285C100.884 21.5018 101.419 21.7115 101.978 21.7115C102.536 21.7115 103.071 21.5018 103.466 21.1285L105.384 19.3015C105.778 18.928 106 18.4216 106 17.8936C106 17.3655 105.778 16.8591 105.384 16.4856L102.708 13.9498Z" fill="#C9C9C9"/>
</svg>
